<?xml version="1.0" encoding="UTF-8"?>
<svg version="1.1" xmlns="http://www.w3.org/2000/svg" width="280" height="280">
<path d="M0 0 C92.4 0 184.8 0 280 0 C280 92.4 280 184.8 280 280 C187.6 280 95.2 280 0 280 C0 187.6 0 95.2 0 0 Z " fill="#262626" transform="translate(0,0)"/>
<path d="M0 0 C1.19302734 0.36085693 1.19302734 0.36085693 2.41015625 0.72900391 C11.4804516 3.55116801 19.85656489 7.0400676 28 12 C27.39099439 15.88674672 26.20751424 18.9264733 24.41796875 22.421875 C23.89783203 23.44796875 23.37769531 24.4740625 22.84179688 25.53125 C22.29587891 26.5934375 21.74996094 27.655625 21.1875 28.75 C17.60835797 35.76149175 14.09514376 42.75922552 11 50 C7.61545062 49.4202152 4.7630514 48.5804361 1.6640625 47.109375 C0.85356445 46.73159912 0.04306641 46.35382324 -0.79199219 45.96459961 C-1.64438477 45.56378174 -2.49677734 45.16296387 -3.375 44.75 C-11.77094752 40.87476954 -20.14672508 37.66939653 -29 35 C-28.85831863 33.56208484 -28.71148957 32.1246763 -28.5625 30.6875 C-28.44068359 29.48673828 -28.44068359 29.48673828 -28.31640625 28.26171875 C-28 26 -28 26 -27 23 C-28.79401245 23.59071289 -28.79401245 23.59071289 -30.62426758 24.19335938 C-35.05640487 25.65143401 -39.49042818 27.10369686 -43.92504883 28.55419922 C-45.84516628 29.18314443 -47.7647666 29.81367067 -49.68383789 30.44580078 C-52.44022783 31.35343603 -55.19841937 32.25539408 -57.95703125 33.15625 C-58.81649857 33.44060913 -59.67596588 33.72496826 -60.56147766 34.01794434 C-61.36208115 34.27821411 -62.16268463 34.53848389 -62.98754883 34.80664062 C-63.6914827 35.03758423 -64.39541656 35.26852783 -65.12068176 35.50646973 C-67 36 -67 36 -70 36 C-70 36.66 -70 37.32 -70 38 C-69.34 38.185625 -68.68 38.37125 -68 38.5625 C-65.2030029 39.90272778 -63.61989066 41.11108488 -61.359375 43.16796875 C-57.14647425 46.91785514 -52.74965107 50.35328294 -48.25 53.75 C-47.50878906 54.31332031 -46.76757812 54.87664062 -46.00390625 55.45703125 C-42.67787917 57.98290101 -39.34224515 60.49563328 -36 63 C-35.93941406 62.37351562 -35.87882812 61.74703125 -35.81640625 61.1015625 C-35.69072266 59.87566406 -35.69072266 59.87566406 -35.5625 58.625 C-35.44068359 57.40683594 -35.44068359 57.40683594 -35.31640625 56.1640625 C-35 54 -35 54 -34 52 C-27.42354194 52.97718545 -21.31932181 54.981894 -15 57 C-13.75992188 57.37253906 -12.51984375 57.74507812 -11.2421875 58.12890625 C4.18651189 62.92859405 15.45422029 69.46918882 23.73828125 83.47265625 C26.82290084 89.65144534 27.35684799 94.95462045 27.3125 101.75 C27.30686035 102.64380371 27.3012207 103.53760742 27.29541016 104.45849609 C27.06957695 116.70491633 23.2015033 126.68058018 14.75 135.75 C1.16814499 148.32797877 -18.30998618 152.42561193 -36.3125 152.25 C-37.31579346 152.24395752 -38.31908691 152.23791504 -39.3527832 152.23168945 C-47.06053702 152.1292175 -54.43180826 151.54671271 -62 150 C-63.44246094 149.70802734 -63.44246094 149.70802734 -64.9140625 149.41015625 C-81.73796441 145.57829719 -98.67820547 139.23708623 -112 128 C-110.29477694 122.05664945 -107.47924349 116.73709213 -104.6875 111.25 C-104.21376953 110.3115625 -103.74003906 109.373125 -103.25195312 108.40625 C-102.3066549 106.53375776 -101.35989752 104.66200139 -100.41162109 102.79101562 C-98.25905204 98.53501952 -96.12874272 94.2679518 -94 90 C-93.4121875 90.39888428 -92.824375 90.79776855 -92.21875 91.20874023 C-77.75515818 100.99224025 -63.78760371 107.3750447 -47 112 C-47.33 115.3 -47.66 118.6 -48 122 C-47.25951416 121.74307373 -46.51902832 121.48614746 -45.75610352 121.22143555 C-42.35842879 120.04289945 -38.9604667 118.86519399 -35.5625 117.6875 C-34.39783203 117.28337891 -33.23316406 116.87925781 -32.03320312 116.46289062 C-25.70146532 114.26907725 -19.3632002 112.10080177 -13 110 C-11.824375 109.608125 -10.64875 109.21625 -9.4375 108.8125 C-8.633125 108.544375 -7.82875 108.27625 -7 108 C-16.31505302 98.06394345 -28.12677163 90.15492127 -39 82 C-39.66 85.63 -40.32 89.26 -41 93 C-61.84280747 90.46506396 -83.4666449 83.80865449 -97 67 C-98.7956997 63.74955625 -100.04246139 60.58119441 -101 57 C-101.17217041 56.38060547 -101.34434082 55.76121094 -101.52172852 55.12304688 C-104.25087711 43.00835765 -102.24892051 30.36479555 -96.125 19.75 C-95.42375 18.8425 -94.7225 17.935 -94 17 C-93.59265625 16.44957031 -93.1853125 15.89914063 -92.765625 15.33203125 C-83.18423309 3.13997919 -68.39177653 -2.51987744 -53.4597168 -4.6184082 C-35.21039049 -6.63122995 -17.54170419 -5.3271459 0 0 Z " fill="#FDFDFD" transform="translate(182,67)"/>
</svg>
