<svg version="1.1" id="Layer_1" xmlns:x="ns_extend;" xmlns:i="ns_ai;" xmlns:graph="ns_graphs;" xmlns:svg="http://www.w3.org/2000/svg" xmlns="http://www.w3.org/2000/svg" xmlns:xlink="http://www.w3.org/1999/xlink" x="0px" y="0px" viewBox="0 0 421.4 88" style="enable-background:new 0 0 421.4 88;" xml:space="preserve">
 <style type="text/css">
  .st0{fill:#F7931A;}
	.st1{fill:#FFFFFF;}
	.st2{fill:#4D4D4D;}
 </style>
 <metadata>
  <sfw xmlns="ns_sfw;">
   <slices>
   </slices>
   <sliceSourceBounds bottomLeftOrigin="true" height="88" width="421.4" x="-116.1" y="-24">
   </sliceSourceBounds>
  </sfw>
 </metadata>
 <g transform="translate(-289.60744,-341.50536)">
  <g transform="matrix(0.61129216,0,0,0.61129216,170.80346,315.53734)">
   <path class="st0" d="M336.1,131.9c-9.6,38.6-48.7,62-87.2,52.4c-38.5-9.6-62-48.7-52.4-87.2c9.6-38.6,48.7-62,87.2-52.4
			C322.3,54.2,345.7,93.3,336.1,131.9z">
   </path>
   <path class="st1" d="M298,104.2c1.4-9.6-5.9-14.7-15.8-18.2l3.2-13l-7.9-2l-3.1,12.6c-2.1-0.5-4.2-1-6.3-1.5l3.2-12.7l-7.9-2
			l-3.2,13c-1.7-0.4-3.4-0.8-5-1.2l0,0l-10.9-2.7l-2.1,8.4c0,0,5.9,1.3,5.7,1.4c3.2,0.8,3.8,2.9,3.7,4.6l-3.7,14.8
			c0.2,0.1,0.5,0.1,0.8,0.3c-0.3-0.1-0.5-0.1-0.8-0.2l-5.2,20.7c-0.4,1-1.4,2.4-3.6,1.9c0.1,0.1-5.7-1.4-5.7-1.4l-3.9,9l10.3,2.6
			c1.9,0.5,3.8,1,5.6,1.5l-3.3,13.1l7.9,2l3.2-13c2.2,0.6,4.2,1.1,6.3,1.6l-3.2,12.9l7.9,2l3.3-13.1c13.5,2.5,23.6,1.5,27.9-10.7
			c3.4-9.8-0.2-15.5-7.3-19.2C293.1,114.6,297,111.2,298,104.2L298,104.2z M280,129.5c-2.4,9.8-19,4.5-24.3,3.2l4.3-17.4
			C265.4,116.6,282.5,119.3,280,129.5z M282.4,104.1c-2.2,8.9-16,4.4-20.4,3.3l3.9-15.8C270.4,92.7,284.8,94.8,282.4,104.1z">
   </path>
   <g>
    <path class="st2" d="M405.3,86c5.8,0,10.9,1,15.1,3.1c4.3,2.1,7.8,4.9,10.6,8.4c2.8,3.5,4.8,7.7,6.2,12.4c1.3,4.7,2,9.8,2,15.3
				c0,8.4-1.5,16.3-4.6,23.8c-3.1,7.5-7.3,14-12.7,19.5c-5.3,5.5-11.7,9.9-18.9,13.1c-7.3,3.2-15.2,4.8-23.7,4.8c-1.1,0-3,0-5.8-0.1
				c-2.7-0.1-5.9-0.3-9.4-0.8c-3.5-0.5-7.3-1.2-11.2-2.2c-3.9-1-7.7-2.3-11.2-4l31.5-132.4l28.2-4.4l-11.3,47
				c2.4-1.1,4.8-1.9,7.3-2.5C399.9,86.4,402.5,86,405.3,86L405.3,86z M381.6,164c4.3,0,8.3-1,12-3.1c3.8-2.1,7-4.8,9.8-8.3
				c2.7-3.5,4.9-7.4,6.5-11.8c1.6-4.4,2.4-8.9,2.4-13.7c0-5.8-1-10.4-2.9-13.7c-1.9-3.3-5.5-4.9-10.7-4.9c-1.7,0-3.9,0.3-6.6,0.9
				c-2.7,0.6-5.2,1.9-7.4,3.8l-12,49.9c0.7,0.1,1.4,0.2,1.9,0.4c0.5,0.1,1.1,0.2,1.7,0.3c0.6,0.1,1.3,0.1,2.2,0.1
				S380.3,164,381.6,164L381.6,164z">
    </path>
    <path class="st2" d="M468.4,183.9h-27l22.8-95.8h27.1L468.4,183.9z M481.6,76.4c-3.8,0-7.2-1.1-10.2-3.4
				c-3.1-2.2-4.6-5.7-4.6-10.3c0-2.5,0.5-4.9,1.5-7.2c1-2.2,2.4-4.2,4.1-5.8c1.7-1.6,3.7-2.9,5.9-3.9c2.3-1,4.7-1.5,7.2-1.5
				c3.8,0,7.2,1.1,10.2,3.4c3,2.3,4.6,5.7,4.6,10.3c0,2.6-0.5,5-1.5,7.2c-1,2.2-2.4,4.2-4.1,5.8c-1.7,1.6-3.7,2.9-5.9,3.9
				C486.5,75.9,484.1,76.4,481.6,76.4L481.6,76.4z">
    </path>
    <path class="st2" d="M515,64.2l28.2-4.4l-6.9,28.2h30.2l-5.5,22.2H531l-8,33.5c-0.7,2.8-1.2,5.4-1.3,7.8
				c-0.1,2.4,0.2,4.5,0.9,6.3c0.7,1.8,2,3.1,3.9,4.1c1.9,1,4.6,1.5,8.1,1.5c2.9,0,5.7-0.3,8.5-0.8c2.7-0.5,5.5-1.3,8.3-2.3l2,20.8
				c-3.6,1.3-7.6,2.5-11.8,3.5c-4.3,1-9.3,1.5-15.1,1.5c-8.4,0-14.9-1.2-19.5-3.7c-4.6-2.5-7.9-5.9-9.8-10.2
				c-1.9-4.3-2.8-9.3-2.5-14.8c0.2-5.6,1.1-11.5,2.5-17.7L515,64.2z">
    </path>
    <path class="st2" d="M565.4,145.6c0-8.3,1.3-16,4-23.3c2.7-7.3,6.5-13.7,11.5-19.1c5-5.4,11-9.8,18.1-12.9
				c7.1-3.1,15-4.7,23.8-4.7c5.5,0,10.4,0.5,14.7,1.6c4.3,1,8.2,2.4,11.8,4.1l-9.3,21.1c-2.4-1-5-1.9-7.6-2.6
				c-2.6-0.8-5.8-1.2-9.6-1.2c-9,0-16.1,3.1-21.4,9.3c-5.3,6.2-7.9,14.5-7.9,25c0,6.2,1.3,11.2,4,15c2.7,3.8,7.6,5.7,14.8,5.7
				c3.5,0,6.9-0.4,10.2-1.1c3.3-0.7,6.2-1.6,8.7-2.7l2,21.7c-3.4,1.3-7.2,2.5-11.3,3.6c-4.1,1-9.1,1.5-14.8,1.5
				c-7.5,0-13.9-1.1-19.1-3.3c-5.2-2.2-9.5-5.1-12.9-8.8c-3.4-3.7-5.9-8.1-7.4-13C566.1,156.3,565.4,151.1,565.4,145.6L565.4,145.6z
				">
    </path>
    <path class="st2" d="M685.1,186.4c-6.4,0-12-1-16.8-2.9c-4.7-1.9-8.6-4.7-11.7-8.2c-3.1-3.5-5.4-7.7-7-12.5
				c-1.6-4.8-2.4-10.1-2.4-15.9c0-7.3,1.2-14.6,3.5-21.9c2.4-7.3,5.9-13.8,10.5-19.7c4.6-5.8,10.3-10.6,16.9-14.3
				c6.7-3.7,14.3-5.6,22.9-5.6c6.3,0,11.9,1,16.7,2.9c4.8,1.9,8.7,4.7,11.8,8.2c3.1,3.5,5.4,7.7,7,12.5c1.6,4.8,2.4,10.1,2.4,15.9
				c0,7.3-1.2,14.6-3.5,21.9c-2.3,7.3-5.7,13.8-10.2,19.7c-4.5,5.8-10.1,10.6-16.8,14.3C701.8,184.6,694,186.4,685.1,186.4
				L685.1,186.4z M698.6,108.5c-4,0-7.5,1.2-10.6,3.5c-3,2.3-5.6,5.2-7.6,8.7c-2.1,3.5-3.6,7.4-4.7,11.6c-1,4.2-1.5,8.2-1.5,11.9
				c0,6.1,1,10.8,2.9,14.2c2,3.4,5.5,5.1,10.6,5.1c4,0,7.5-1.2,10.6-3.5c3-2.3,5.6-5.2,7.6-8.7c2.1-3.5,3.6-7.4,4.7-11.6
				c1-4.2,1.5-8.2,1.5-11.9c0-6.1-1-10.8-2.9-14.2C707.2,110.2,703.7,108.5,698.6,108.5z">
    </path>
    <path class="st2" d="M768.4,183.9h-27l22.8-95.8h27.2L768.4,183.9z M781.5,76.4c-3.8,0-7.2-1.1-10.2-3.4c-3-2.2-4.6-5.7-4.6-10.3
				c0-2.5,0.5-4.9,1.6-7.2c1-2.2,2.4-4.2,4.1-5.8c1.7-1.6,3.7-2.9,5.9-3.9c2.2-1,4.6-1.5,7.2-1.5c3.8,0,7.2,1.1,10.2,3.4
				c3,2.3,4.6,5.7,4.6,10.3c0,2.6-0.5,5-1.6,7.2c-1,2.2-2.4,4.2-4.1,5.8c-1.7,1.6-3.7,2.9-5.9,3.9C786.5,75.9,784.1,76.4,781.5,76.4
				L781.5,76.4z">
    </path>
    <path class="st2" d="M810.8,92.4c2-0.6,4.3-1.3,6.8-2.1c2.5-0.8,5.3-1.5,8.4-2.2c3.1-0.7,6.6-1.2,10.4-1.7
				c3.8-0.4,8.2-0.6,13-0.6c14.2,0,24,4.1,29.4,12.4c5.4,8.3,6.3,19.6,2.8,33.9l-12.4,51.7h-27.1l12-50.6c0.7-3.2,1.3-6.2,1.7-9.2
				c0.4-3,0.4-5.6-0.1-7.8c-0.5-2.2-1.6-4.1-3.4-5.5c-1.8-1.4-4.5-2.1-8.1-2.1c-3.5,0-7.1,0.4-10.7,1.1l-17.7,74.1h-27.2
				C788.8,183.9,810.8,92.4,810.8,92.4z">
    </path>
   </g>
  </g>
 </g>
</svg>