<svg version="1.1" id="Layer_1"
     width="100%"
     xmlns="http://www.w3.org/2000/svg"
     x="0px" y="0px" viewBox="0 0 201 43"
     style="enable-background:new 0 0 201.3 42;"
     xml:space="preserve">
 <style type="text/css">
  .st0{fill:#1C1D1F;}
	.st1{fill:#00D54B;}
 </style>
 <metadata>
 </metadata>
 <g>
  <g>
   <path class="st0" d="M52.2,11.2C52.3,11.2,52.3,11.2,52.2,11.2c0.6-0.4,0.7-1.1,0.3-1.6c-2.7-3.7-7.1-5.9-11.7-5.8
			c-8.7,0-14.6,6.3-14.6,15.6s6,15.7,14.7,15.7c4.7,0.1,9.1-2.2,11.7-6.1c0,0,0-0.1,0.1-0.1c0.3-0.5,0.1-1.2-0.4-1.5L49.7,26
			c-0.5-0.3-1.1-0.1-1.5,0.3c-1.6,2.4-4.3,3.9-7.2,3.8c-5.5,0-9-4.4-9-10.7S35.5,8.9,41,8.9c2.9-0.1,5.6,1.3,7.2,3.6
			c0.3,0.5,1,0.6,1.5,0.3L52.2,11.2z">
   </path>
   <path class="st0" d="M70,34.6h2.9c0.6,0,1.1-0.5,1.1-1.1V19.1c0-5.2-3.7-7.4-9-7.4c-2.9,0-5.8,0.7-8.4,2.1
			c-0.5,0.3-0.7,0.9-0.5,1.5l1,2c0,0,0,0,0,0c0.3,0.5,1,0.7,1.5,0.4c1.9-1,3.9-1.5,6-1.5c1.8,0,4,0.5,4,2.4c0,2.1-2.8,2.3-6,2.8
			c-3,0.4-7.9,1.4-7.9,6.8c0,4.4,3.2,6.9,7.7,6.9c3.1,0,5-1.1,6.4-2.9v1.3C69,34.1,69.4,34.6,70,34.6z M68.7,26.1
			c0,3.3-2.4,4.8-5,4.8c-2.1,0-3.5-0.9-3.5-2.9c0-2.2,1.6-2.7,3.6-3.1c2-0.4,3.9-0.6,4.9-1.4V26.1z">
   </path>
   <path class="st0" d="M77.3,30.7C77.3,30.7,77.3,30.7,77.3,30.7c-0.4,0.5-0.3,1.2,0.1,1.6c2.6,2,5.7,3,9,2.9c5.9,0,9.6-2.9,9.6-7.5
			c0-4.4-3.4-6-8.7-6.9c-2.5-0.4-5-0.8-5-2.5c0-1.6,1.7-2.2,3.8-2.2c2.1,0,4.1,0.6,5.8,1.9c0.5,0.4,1.1,0.3,1.5-0.2l1.4-1.6
			c0,0,0,0,0-0.1c0.4-0.5,0.3-1.2-0.2-1.5c-2.4-1.8-5.4-2.8-8.4-2.8c-4.8,0-9.1,2.1-9.1,7c0,4.7,4,6.1,8.1,6.8
			c3.9,0.6,5.5,1,5.5,2.7c0,1.9-1.8,2.6-4.1,2.6c-2.3,0.1-4.6-0.7-6.4-2.1c-0.5-0.4-1.1-0.3-1.5,0.1L77.3,30.7z">
   </path>
   <path class="st0" d="M100.4,34.6h3.2c0.6,0,1.1-0.5,1.1-1.1V22c0-3.4,2.2-5.4,5.1-5.4c3.1,0,3.8,2.2,3.8,4.5v12.4
			c0,0.6,0.5,1.1,1.1,1.1h3.2l0,0c0.6,0,1.1-0.5,1.1-1.1V19.9c0-4.8-2.7-8.1-7.5-8.1c-2.7-0.1-5.2,1.2-6.8,3.3V5.5
			c0-0.6-0.5-1.1-1.1-1.1h-3.2c-0.6,0-1.1,0.5-1.1,1.1v28C99.3,34.1,99.8,34.6,100.4,34.6z">
   </path>
   <path class="st0" d="M145.1,34.6h3.9c0.1,0,0.3,0,0.4-0.1c0.6-0.2,0.9-0.8,0.7-1.4l-10.3-28c-0.2-0.4-0.6-0.7-1-0.7h-5.1
			c-0.5,0-0.9,0.3-1,0.7l-10.4,28c0,0.1-0.1,0.2-0.1,0.4c0,0.6,0.5,1.1,1.1,1.1h3.7c0.5,0,0.9-0.3,1-0.8l2.3-6.7h11.6l2.3,6.7
			C144.3,34.3,144.7,34.6,145.1,34.6z M140.4,22.4h-8.7l4.4-13.1L140.4,22.4z">
   </path>
   <path class="st0" d="M158.7,13.4c0-0.6-0.5-1.1-1.1-1.1h-3.2l0,0c-0.6,0-1.1,0.5-1.1,1.1v27.5v0c0,0.6,0.5,1.1,1.1,1.1h3.2l0,0
			c0.6,0,1.1-0.5,1.1-1.1v-9.2c1.6,2.2,4.2,3.5,6.9,3.4c6.1,0,10-5.1,10-11.7s-3.9-11.6-10-11.6c-2.7-0.1-5.3,1.1-6.9,3.3
			L158.7,13.4C158.7,13.4,158.7,13.4,158.7,13.4z M158.7,23.4c0-3.9,2-6.9,5.8-6.9c3.7,0,5.5,3.1,5.5,6.9s-1.8,7-5.5,7
			C160.7,30.4,158.7,27.3,158.7,23.4z">
   </path>
   <path class="st0" d="M184.3,13.3c0-0.6-0.5-1.1-1.1-1.1h-3.2c0,0,0,0,0,0c-0.6,0-1.1,0.5-1.1,1.1v27.5v0c0,0.6,0.5,1.1,1.1,1.1
			h3.2l0,0c0.6,0,1.1-0.5,1.1-1.1v-9.2c1.6,2.2,4.2,3.5,6.9,3.4c6.1,0,10-5.1,10-11.7s-3.9-11.6-10-11.6c-2.7-0.1-5.3,1.1-6.9,3.3
			L184.3,13.3C184.3,13.4,184.3,13.4,184.3,13.3z M190.1,30.4c-3.8,0-5.8-3.2-5.8-7s2-6.9,5.8-6.9c3.7,0,5.5,3.1,5.5,6.9
			S193.8,30.4,190.1,30.4L190.1,30.4z">
   </path>
  </g>
  <g>
   <path class="st1" d="M6.9,8.2c0,1.5,1.7,2,3.6,2.7c3.4,1.2,6.3,2.6,6.3,6c0,3.7-2.8,6.2-7.5,6.5l-0.4,2C8.9,25.7,8.5,26,8.2,26
			H5.2c0,0-0.1,0-0.1,0c-0.4-0.1-0.7-0.5-0.6-1l0.4-2.1c-1.8-0.5-3.4-1.4-4.7-2.6c0,0,0,0,0,0c-0.3-0.3-0.3-0.8,0-1.1l1.6-1.6
			c0,0,0,0,0,0c0.3-0.3,0.8-0.3,1.1,0c1.5,1.4,3.5,2.2,5.5,2.2c2.1,0,3.5-0.9,3.5-2.3s-1.4-1.8-4.1-2.8c-2.9-1-5.6-2.5-5.6-5.9
			c0-4,3.3-5.9,7.1-6.1l0.4-2C9.9,0.3,10.2,0,10.6,0h2.9c0.1,0,0.1,0,0.2,0c0.4,0.1,0.7,0.5,0.6,0.9l-0.5,2.3c1.5,0.5,2.9,1.3,4,2.3
			c0,0,0,0,0,0c0.3,0.3,0.3,0.8,0,1.1l-1.5,1.5c-0.3,0.3-0.8,0.3-1.1,0c-1.5-1.2-3.3-1.9-5.2-1.9C8.5,6.2,6.9,6.7,6.9,8.2z">
   </path>
  </g>
 </g>
</svg>